<svg xmlns="http://www.w3.org/2000/svg" viewBox="0 0 796 684" role="img" aria-labelledby="title">
  <title id="title">RE:Hardware</title>

  <g fill="none" stroke="#087d65" stroke-width="5">
    <path d="M377 76v66M377 587v66"/>
    <path d="M218 116v118M216 493v119"/>
    <path d="M538 116v118M536 493v119"/>
    <path d="M67 252h118M569 252h120"/>
    <path d="M67 475h118M569 475h120"/>
    <path d="M119 367h66M569 362h68"/>
    <path d="M377 141 569 252v223L377 587 185 475V252Z"/>
    <path d="M377 177 538 270v187L377 552 216 457V270Z"/>
  </g>

  <g fill="#087d65">
    <path d="M305 245
             C407 202 500 268 515 376
             L539 375
             477 443
             472 354
             484 363
             C469 288 394 237 320 274
             Z"/>
    <path d="M450 483
             C348 526 255 460 241 350
             L218 351
             279 286
             284 375
             273 366
             C288 442 363 493 436 455
             Z"/>
  </g>
</svg>
